<?xml version="1.0" encoding="utf-8"?>
<!-- Generator: Adobe Illustrator 27.0.0, SVG Export Plug-In . SVG Version: 6.00 Build 0)  -->
<svg version="1.1" id="Ebene_1" xmlns="http://www.w3.org/2000/svg" xmlns:xlink="http://www.w3.org/1999/xlink" x="0px" y="0px"
	 viewBox="0 0 255.12 113.39" enable-background="new 0 0 255.12 113.39" xml:space="preserve">
<g>
	<path fill="#4A782E" d="M43.13,66.05c5.02,2.27,9.71,2.02,13.95-0.75c4.34-2.84,5.57-7.33,5.9-9.99c-0.8,0.54-1.9,1.12-3.41,1.59
		c-3,0.92-5.36,0.56-6.33,0.33l-6.52,4.66c-0.27,0.19-0.62,0.22-0.91,0.08c-0.86-0.4-3.71-1.84-4.14-3.38
		c-0.41-1.48,1.5-4.25,2.68-5.78l9.85-11.97l-0.56-3.09c-0.07-0.37,0.1-0.75,0.42-0.94c0.32-0.19,0.73-0.17,1.03,0.06
		c0.02,0.01,1.6,1.25,2.27,1.73c0.44,0.31,1.59,0.82,2.24,1.08l3.7,1.15c0.02,0,0.03,0.01,0.04,0.01
		c9.99,3.57,14.84,9.49,14.84,18.07c0,0.79-0.06,1.57-0.17,2.34c0.65-2.04,1.01-4.22,1.01-6.48c0-11.72-9.51-21.23-21.22-21.23
		c-11.72,0-21.23,9.5-21.23,21.23c0,2.92,0.59,5.71,1.66,8.25C39.37,63.93,41.07,65.12,43.13,66.05"/>
	<path fill="#4A782E" d="M76.37,58.92c0-7.83-4.33-13.03-13.62-16.36l-3.72-1.15c-0.02-0.01-0.05-0.02-0.07-0.03
		c-0.19-0.07-1.87-0.75-2.64-1.29c-0.13-0.1-0.3-0.22-0.48-0.35l0.21,1.2c0.05,0.26-0.02,0.53-0.19,0.74l-10.1,12.27
		c-1.3,1.69-2.41,3.65-2.34,4.18c0.11,0.39,1.33,1.28,2.68,1.97l6.43-4.59c0.24-0.17,0.55-0.21,0.83-0.12
		c0.02,0,2.39,0.79,5.68-0.23c3.2-0.98,4.17-2.52,4.19-2.54c0.21-0.33,0.61-0.5,0.99-0.41c0.38,0.09,0.67,0.42,0.69,0.81
		c0.02,0.36,0.5,8.99-6.84,13.79c-2.84,1.86-5.67,2.56-8.31,2.56c-3.74,0-7.12-1.4-9.67-2.9C43.89,72.21,50.4,76,57.8,76
		c3.81,0,7.39-1.01,10.48-2.77C73.12,69.87,76.37,64.6,76.37,58.92"/>
	<path fill="#4A782E" d="M94.42,47.31c-1.69,0-4.92,0.21-7.59,1.66l-0.28,0.15l-0.03,0.31c-0.09,1.13-0.13,2.25-0.13,3.42v14.93
		h4.45V54.13c0-0.54,0.01-1.51,0.06-2.39c0.91-0.35,2.24-0.57,3.52-0.57c0.57,0,1.04,0.02,1.44,0.07l0.6,0.07l0.38-3.87l-0.59-0.06
		C95.7,47.33,95.11,47.31,94.42,47.31"/>
	<path fill="#4A782E" d="M106.52,51.04c3.11,0,4.37,1.25,4.37,4.32c0,0.18,0,0.4-0.01,0.61c-1.55,0.18-3.77,0.35-5.12,0.42
		l-3.85,0.18C101.98,52.82,102.79,51.04,106.52,51.04 M106.52,47.31c-6.46,0-8.98,2.9-8.98,10.36c0,4.45,0.89,10.37,8.56,10.37
		c3.58,0,5.92-0.32,8.18-0.67l0.56-0.09l-0.42-3.68l-0.59,0.08c-1.92,0.26-4.22,0.51-6.7,0.51c-3.37,0-4.72-1.05-5.08-4.11
		l3.36-0.14c2.56-0.11,7.14-0.53,9.43-0.93l0.45-0.08l0.04-0.46c0.03-0.45,0.05-1.01,0.05-1.67
		C115.36,52.11,114.31,47.31,106.52,47.31"/>
	<path fill="#4A782E" d="M138.03,47.31c-2.25,0-4.54,0.45-6.51,1.28c-1.17-0.87-2.78-1.28-4.92-1.28c-2.74,0-5.85,0.64-8.12,1.67
		l-0.32,0.15l-0.02,0.35c-0.06,0.9-0.13,2.09-0.13,3.41v14.89h4.45V54.14c0-0.67,0.02-1.59,0.07-2.39c0.88-0.34,2.25-0.6,3.18-0.6
		c2.88,0,3.72,0.94,3.72,4.2v12.43h4.45V54.9c0-1.19-0.09-2.14-0.28-2.96c1.2-0.55,2.6-0.79,3.54-0.79c2.88,0,3.72,0.94,3.72,4.2
		v12.43h4.45V54.9C145.3,51.15,144.43,47.31,138.03,47.31"/>
	<path fill="#4A782E" d="M157.27,64.19c-3.39,0-4.52-0.94-4.52-6.52c0-5.57,1.13-6.51,4.52-6.51c3.2,0,4.54,0.9,4.54,6.51
		C161.81,63.28,160.47,64.19,157.27,64.19 M157.27,47.31c-6.48,0-9,2.9-9,10.36c0,7.46,2.52,10.37,9,10.37c6.48,0,9-2.91,9-10.37
		C166.27,50.21,163.75,47.31,157.27,47.31"/>
	<path fill="#4A782E" d="M178.47,47.31c-3.4,0-6.45,0.58-8.84,1.68l-0.31,0.15l-0.03,0.34c-0.09,1.13-0.13,2.25-0.13,3.41v14.89
		h4.45V54.14c0-0.67,0.01-1.59,0.06-2.38c0.95-0.35,2.54-0.62,3.81-0.62c4.01,0,4.39,1.16,4.39,4.22v12.42h4.45V54.9
		C186.32,51.06,185.71,47.31,178.47,47.31"/>
	<path fill="#4A782E" d="M199.36,64.22c-0.45,0.04-0.82,0.05-1.18,0.05c-1.78,0-2.33-0.31-2.33-2.25V51.24h4.11v-3.68h-4.11v-5.48
		l-4.46,0.73v4.76h-3.35v3.68h3.35v11.13c0,3.86,1.86,5.67,5.84,5.67c0.69,0,1.64-0.09,2.53-0.24l0.54-0.09l-0.38-3.52L199.36,64.22
		z"/>
	<path fill="#4A782E" d="M210.14,51.04c3.11,0,4.37,1.25,4.37,4.32c0,0.17,0,0.4-0.01,0.61c-1.55,0.18-3.77,0.35-5.12,0.42
		l-3.85,0.18C205.6,52.82,206.41,51.04,210.14,51.04 M210.14,47.31c-6.46,0-8.98,2.9-8.98,10.36c0,4.45,0.89,10.37,8.56,10.37
		c3.59,0,5.92-0.32,8.19-0.67l0.56-0.09l-0.42-3.68l-0.59,0.08c-1.92,0.26-4.22,0.51-6.7,0.51c-3.37,0-4.72-1.05-5.08-4.11
		l3.36-0.14c2.56-0.11,7.13-0.53,9.42-0.93l0.45-0.08l0.03-0.46c0.04-0.45,0.06-1.01,0.06-1.67
		C218.98,52.11,217.93,47.31,210.14,47.31"/>
</g>
<g>
	<path fill="#4A782E" d="M223.97,42.35c2.13,0,3.84,1.7,3.84,3.83c0,2.14-1.71,3.85-3.84,3.85c-2.14,0-3.84-1.71-3.84-3.85
		C220.13,44.05,221.83,42.35,223.97,42.35z M223.97,43.1c-1.72,0-3.06,1.34-3.06,3.08c0,1.76,1.34,3.1,3.06,3.1
		c1.72,0,3.06-1.34,3.06-3.1C227.02,44.44,225.69,43.1,223.97,43.1z M223.31,48.31h-0.82v-4.39h1.56c1.23,0,1.72,0.47,1.72,1.29
		c0,0.6-0.3,1.04-0.88,1.19l0.94,1.91h-0.92l-0.86-1.79h-0.74V48.31z M223.31,44.6v1.23h0.66c0.69,0,1-0.2,1-0.63
		c0-0.45-0.33-0.61-1.02-0.61H223.31z"/>
</g>
</svg>
